<svg viewBox="0 0 24 23"
    xmlns="http://www.w3.org/2000/svg">
    <symbol id="heart" viewBox="0 0 24 23">
        <path d="M17.2504 0.85083C16.2247 0.860753 15.2156 1.11077 14.3039 1.58085C13.3922 2.05093 12.6033 2.728 12.0004 3.55783C11.3975 2.728 10.6085 2.05093 9.69687 1.58085C8.78518 1.11077 7.77608 0.860753 6.75039 0.85083C4.89216 0.925037 3.13891 1.73201 1.874 3.09529C0.6091 4.45858 -0.0645385 6.26725 0.000386923 8.12583C0.000386923 12.6778 4.67439 17.5508 8.60039 20.8378C9.55372 21.6394 10.7593 22.0789 12.0049 22.0789C13.2504 22.0789 14.4561 21.6394 15.4094 20.8378C19.3314 17.5508 24.0094 12.6778 24.0094 8.12583C24.0743 6.26575 23.3994 4.45576 22.1326 3.09222C20.8657 1.72868 19.1102 0.922718 17.2504 0.85083ZM13.4774 18.5388C13.0638 18.887 12.5405 19.078 11.9999 19.078C11.4592 19.078 10.936 18.887 10.5224 18.5388C5.74239 14.5308 3.00039 10.7358 3.00039 8.12583C2.93663 7.06305 3.29467 6.01801 3.99677 5.21761C4.69887 4.41722 5.68835 3.92608 6.75039 3.85083C7.81242 3.92608 8.8019 4.41722 9.50401 5.21761C10.2061 6.01801 10.5641 7.06305 10.5004 8.12583C10.5004 8.52366 10.6584 8.90519 10.9397 9.18649C11.221 9.46779 11.6026 9.62583 12.0004 9.62583C12.3982 9.62583 12.7797 9.46779 13.061 9.18649C13.3424 8.90519 13.5004 8.52366 13.5004 8.12583C13.4366 7.06305 13.7947 6.01801 14.4968 5.21761C15.1989 4.41722 16.1884 3.92608 17.2504 3.85083C18.3124 3.92608 19.3019 4.41722 20.004 5.21761C20.7061 6.01801 21.0641 7.06305 21.0004 8.12583C21.0004 10.7358 18.2584 14.5308 13.4774 18.5388Z" />
    </symbol>

    <symbol id="heart-hover" width="24" height="23" viewBox="0 0 24 23"
        xmlns="http://www.w3.org/2000/svg">
        <path d="M17.5009 0.916504C16.3749 0.934019 15.2734 1.24836 14.3077 1.82778C13.342 2.40719 12.5463 3.23117 12.0009 4.2165C11.4556 3.23117 10.6599 2.40719 9.69417 1.82778C8.72848 1.24836 7.62698 0.934019 6.50094 0.916504C4.70588 0.994495 3.01464 1.77976 1.79672 3.10074C0.578794 4.42171 -0.0668157 6.17103 0.000934853 7.9665C0.000934853 12.5135 4.78693 17.4795 8.80093 20.8465C9.69715 21.5996 10.8303 22.0125 12.0009 22.0125C13.1716 22.0125 14.3047 21.5996 15.2009 20.8465C19.2149 17.4795 24.0009 12.5135 24.0009 7.9665C24.0687 6.17103 23.4231 4.42171 22.2052 3.10074C20.9872 1.77976 19.296 0.994495 17.5009 0.916504Z" />
    </symbol>


    <symbol id="arrow-icon-left" viewBox="0 0 12 20"
        xmlns="http://www.w3.org/2000/svg">
        <path d="M9.76367 2L1.99917 9.7645" stroke="currentColor" stroke-width="4" stroke-linecap="round" />
        <path d="M9.76367 18L1.99917 10.2355" stroke="currentColor" stroke-width="4" stroke-linecap="round" />
    </symbol>

    <symbol id="arrow-icon-right" viewBox="0 0 12 20"
        xmlns="http://www.w3.org/2000/svg">
        <path d="M2 2L9.7645 9.7645" stroke="currentColor" stroke-width="4" stroke-linecap="round" />
        <path d="M2 18L9.7645 10.2355" stroke="currentColor" stroke-width="4" stroke-linecap="round" />
    </symbol>

    <symbol id="location" width="16" height="19" viewBox="0 0 16 19"
        xmlns="http://www.w3.org/2000/svg">
        <path d="M7.52941 16.6364L11.6622 12.4868C12.4207 11.7395 12.9339 10.8583 13.2016 9.84319C13.4581 8.85042 13.4581 7.85765 13.2016 6.86489C12.9339 5.84981 12.4235 4.9658 11.6706 4.21286C10.9176 3.45992 10.0336 2.94959 9.01856 2.68188C8.02579 2.42532 7.03303 2.42532 6.04026 2.68188C5.02519 2.94959 4.14118 3.45992 3.38824 4.21286C2.63529 4.9658 2.12497 5.84981 1.85725 6.86489C1.6007 7.85765 1.6007 8.85042 1.85725 9.84319C2.12497 10.8583 2.63808 11.7395 3.3966 12.4868L7.52941 16.6364ZM7.52941 18.9956L2.20863 13.6748C1.23817 12.7155 0.585621 11.5777 0.25098 10.2615C-0.0836601 8.98985 -0.0836601 7.71822 0.25098 6.44659C0.585621 5.13033 1.23538 3.98977 2.20026 3.02489C3.16514 2.06001 4.30571 1.40467 5.62196 1.05887C6.89359 0.735388 8.16523 0.735388 9.43686 1.05887C10.7531 1.40467 11.8937 2.06001 12.8586 3.02489C13.8234 3.98977 14.4732 5.13033 14.8078 6.44659C15.1425 7.71822 15.1425 8.98985 14.8078 10.2615C14.4732 11.5777 13.8207 12.7155 12.8502 13.6748L7.52941 18.9956ZM7.52941 10.0272C7.83059 10.0272 8.10946 9.95195 8.36601 9.80136C8.62257 9.65077 8.82614 9.4472 8.97673 9.19064C9.12732 8.93408 9.20261 8.65521 9.20261 8.35404C9.20261 8.05286 9.12732 7.77399 8.97673 7.51744C8.82614 7.26088 8.62257 7.05731 8.36601 6.90672C8.10946 6.75613 7.83059 6.68083 7.52941 6.68083C7.22824 6.68083 6.94937 6.75613 6.69281 6.90672C6.43625 7.05731 6.23268 7.26088 6.08209 7.51744C5.9315 7.77399 5.85621 8.05286 5.85621 8.35404C5.85621 8.65521 5.9315 8.93408 6.08209 9.19064C6.23268 9.4472 6.43625 9.65077 6.69281 9.80136C6.94937 9.95195 7.22824 10.0272 7.52941 10.0272ZM7.52941 11.7004C6.92706 11.7004 6.36932 11.5499 5.85621 11.2487C5.34309 10.9475 4.93595 10.5404 4.63477 10.0272C4.33359 9.51412 4.18301 8.9536 4.18301 8.34567C4.18301 7.73774 4.33359 7.18001 4.63477 6.67247C4.93595 6.16493 5.34309 5.76057 5.85621 5.4594C6.36932 5.15822 6.92706 5.00763 7.52941 5.00763C8.13176 5.00763 8.6895 5.15822 9.20261 5.4594C9.71573 5.76057 10.1229 6.16493 10.4241 6.67247C10.7252 7.18001 10.8758 7.73774 10.8758 8.34567C10.8758 8.9536 10.7252 9.51412 10.4241 10.0272C10.1229 10.5404 9.71573 10.9475 9.20261 11.2487C8.6895 11.5499 8.13176 11.7004 7.52941 11.7004Z" />
    </symbol>

    <symbol id="call" width="16" height="16" viewBox="0 0 16 16"
        xmlns="http://www.w3.org/2000/svg">
        <path d="M5.32078 6.80573C5.7112 7.49732 6.18806 8.12477 6.75137 8.68808C7.31468 9.25139 7.94213 9.72825 8.63373 10.1187L9.36993 9.08128C9.49264 8.90281 9.65717 8.79126 9.86353 8.74664C10.0699 8.70202 10.2679 8.72991 10.4575 8.8303C11.6511 9.48843 12.9283 9.86769 14.2892 9.96808C14.5011 9.99039 14.6824 10.0796 14.8329 10.2358C14.9835 10.392 15.0588 10.5816 15.0588 10.8047V14.5359C15.0588 14.7479 14.9863 14.9347 14.8413 15.0964C14.6963 15.2582 14.5178 15.3502 14.3059 15.3725C13.8597 15.4171 13.4135 15.4395 12.9673 15.4395C11.2049 15.4395 9.52052 15.0992 7.91425 14.4188C6.36375 13.7607 4.99172 12.8348 3.79817 11.6413C2.60462 10.4477 1.67878 9.07571 1.02065 7.5252C0.340218 5.91893 0 4.23457 0 2.47213C0 2.02595 0.0223094 1.57976 0.0669281 1.13357C0.0892375 0.921632 0.181264 0.743157 0.343007 0.598146C0.504749 0.453135 0.69159 0.38063 0.903529 0.38063H4.63477C4.85786 0.38063 5.04749 0.455924 5.20366 0.606512C5.35983 0.7571 5.44906 0.938364 5.47137 1.1503C5.57176 2.51117 5.95102 3.78839 6.60915 4.98194C6.70954 5.17157 6.73743 5.36956 6.69281 5.57592C6.64819 5.78229 6.53664 5.94682 6.35817 6.06952L5.32078 6.80573ZM3.21255 6.25357L4.80209 5.11579C4.3559 4.14534 4.04915 3.12468 3.88183 2.05383H1.6732V2.47213C1.6732 4.00033 1.9688 5.46717 2.56 6.87266C3.12889 8.22237 3.93481 9.41871 4.97778 10.4617C6.02074 11.5046 7.21708 12.3106 8.5668 12.8795C9.97229 13.4707 11.4391 13.7663 12.9673 13.7663H13.3856V11.5576C12.3148 11.3903 11.2941 11.0835 10.3237 10.6374L9.18588 12.2269C8.72854 12.0484 8.28235 11.8365 7.84732 11.5911L7.79712 11.5744C6.98283 11.1059 6.24105 10.537 5.57176 9.86769C4.90248 9.19841 4.33359 8.45662 3.8651 7.64233L3.84837 7.59213C3.60296 7.1571 3.39102 6.71091 3.21255 6.25357Z" />
    </symbol>

    <symbol id="email" width="19" height="16" viewBox="0 0 19 16"
        xmlns="http://www.w3.org/2000/svg">
        <path d="M17.5686 0.38063C17.8029 0.38063 18.0009 0.461501 18.1626 0.623244C18.3244 0.784987 18.4052 0.982983 18.4052 1.21723V14.6029C18.4052 14.8371 18.3244 15.0351 18.1626 15.1968C18.0009 15.3586 17.8029 15.4395 17.5686 15.4395H2.5098C2.27556 15.4395 2.07756 15.3586 1.91582 15.1968C1.75407 15.0351 1.6732 14.8371 1.6732 14.6029V13.7663H16.732V3.97801L10.0392 10.0015L1.6732 2.47213V1.21723C1.6732 0.982983 1.75407 0.784987 1.91582 0.623244C2.07756 0.461501 2.27556 0.38063 2.5098 0.38063H17.5686ZM6.69281 10.4198V12.093H0V10.4198H6.69281ZM4.18301 6.23684V7.91004H0V6.23684H4.18301ZM16.3639 2.05383H3.71451L10.0392 7.74272L16.3639 2.05383Z" />
    </symbol>

    <symbol id="usser-icon" viewBox="0 0 19 19"
        xmlns="http://www.w3.org/2000/svg">
        <path d="M14.0293 18.6875H12.2793V16.9375C12.2793 16.4592 12.1626 16.0187 11.9293 15.6163C11.696 15.2137 11.378 14.8958 10.9755 14.6625C10.573 14.4292 10.1326 14.3125 9.6543 14.3125H4.4043C3.92596 14.3125 3.48555 14.4292 3.08305 14.6625C2.68055 14.8958 2.36263 15.2137 2.1293 15.6163C1.89596 16.0187 1.7793 16.4592 1.7793 16.9375V18.6875H0.0292969V16.9375C0.0292969 16.1442 0.224714 15.4121 0.615547 14.7413C1.00638 14.0704 1.53721 13.5396 2.20805 13.1487C2.87888 12.7579 3.61096 12.5625 4.4043 12.5625H9.6543C10.4476 12.5625 11.1797 12.7579 11.8505 13.1487C12.5214 13.5396 13.0522 14.0704 13.443 14.7413C13.8339 15.4121 14.0293 16.1442 14.0293 16.9375V18.6875ZM7.0293 10.8125C6.0843 10.8125 5.20346 10.5733 4.3868 10.095C3.59346 9.62833 2.96346 8.99833 2.4968 8.205C2.01846 7.38833 1.7793 6.5075 1.7793 5.5625C1.7793 4.6175 2.01846 3.73667 2.4968 2.92C2.96346 2.12667 3.59346 1.49667 4.3868 1.03C5.20346 0.551666 6.0843 0.3125 7.0293 0.3125C7.9743 0.3125 8.85513 0.551666 9.6718 1.03C10.4651 1.49667 11.0951 2.12667 11.5618 2.92C12.0401 3.73667 12.2793 4.6175 12.2793 5.5625C12.2793 6.5075 12.0401 7.38833 11.5618 8.205C11.0951 8.99833 10.4651 9.62833 9.6718 10.095C8.85513 10.5733 7.9743 10.8125 7.0293 10.8125ZM7.0293 9.0625C7.6593 9.0625 8.24263 8.905 8.7793 8.59C9.31596 8.275 9.7418 7.84917 10.0568 7.3125C10.3718 6.77583 10.5293 6.1925 10.5293 5.5625C10.5293 4.9325 10.3718 4.34917 10.0568 3.8125C9.7418 3.27583 9.31596 2.85 8.7793 2.535C8.24263 2.22 7.6593 2.0625 7.0293 2.0625C6.3993 2.0625 5.81596 2.22 5.2793 2.535C4.74263 2.85 4.3168 3.27583 4.0018 3.8125C3.6868 4.34917 3.5293 4.9325 3.5293 5.5625C3.5293 6.1925 3.6868 6.77583 4.0018 7.3125C4.3168 7.84917 4.74263 8.275 5.2793 8.59C5.81596 8.905 6.3993 9.0625 7.0293 9.0625Z"/>
    </symbol>

    <symbol id="shop-icon" viewBox="0 0 19 19"
        xmlns="http://www.w3.org/2000/svg">
        <path d="M2.22852 12.5625V2.0625H0.478516V0.3125H3.10352C3.34852 0.3125 3.5556 0.397083 3.72477 0.56625C3.89393 0.735416 3.97852 0.942499 3.97852 1.1875V11.6875H14.8635L16.6135 4.6875H5.72852V2.9375H17.7335C17.9785 2.9375 18.1856 3.02208 18.3548 3.19125C18.5239 3.36042 18.6085 3.5675 18.6085 3.8125C18.6085 3.8825 18.5968 3.9525 18.5735 4.0225L16.386 12.7725C16.3393 12.9708 16.2373 13.1312 16.0798 13.2537C15.9223 13.3762 15.7443 13.4375 15.546 13.4375H3.10352C2.85852 13.4375 2.65143 13.3529 2.48227 13.1838C2.3131 13.0146 2.22852 12.8075 2.22852 12.5625ZM3.97852 18.6875C3.66352 18.6875 3.37185 18.6088 3.10352 18.4513C2.83518 18.2937 2.62227 18.0808 2.46477 17.8125C2.30727 17.5442 2.22852 17.2525 2.22852 16.9375C2.22852 16.6225 2.30727 16.3308 2.46477 16.0625C2.62227 15.7942 2.83518 15.5812 3.10352 15.4237C3.37185 15.2662 3.66352 15.1875 3.97852 15.1875C4.29352 15.1875 4.58518 15.2662 4.85352 15.4237C5.12185 15.5812 5.33477 15.7942 5.49227 16.0625C5.64977 16.3308 5.72852 16.6225 5.72852 16.9375C5.72852 17.2525 5.64977 17.5442 5.49227 17.8125C5.33477 18.0808 5.12185 18.2937 4.85352 18.4513C4.58518 18.6088 4.29352 18.6875 3.97852 18.6875ZM14.4785 18.6875C14.1635 18.6875 13.8718 18.6088 13.6035 18.4513C13.3352 18.2937 13.1223 18.0808 12.9648 17.8125C12.8073 17.5442 12.7285 17.2525 12.7285 16.9375C12.7285 16.6225 12.8073 16.3308 12.9648 16.0625C13.1223 15.7942 13.3352 15.5812 13.6035 15.4237C13.8718 15.2662 14.1635 15.1875 14.4785 15.1875C14.7935 15.1875 15.0852 15.2662 15.3535 15.4237C15.6218 15.5812 15.8348 15.7942 15.9923 16.0625C16.1498 16.3308 16.2285 16.6225 16.2285 16.9375C16.2285 17.2525 16.1498 17.5442 15.9923 17.8125C15.8348 18.0808 15.6218 18.2937 15.3535 18.4513C15.0852 18.6088 14.7935 18.6875 14.4785 18.6875Z"/>
    </symbol>

    <symbol id="left-arrow-slide" viewBox="0 0 14 12"
        xmlns="http://www.w3.org/2000/svg">

        <path d="M13.54 5.04001H3.54L6.82 1.76001L5.38 0.40001L1.06 4.64001C0.686667 5.06668 0.5 5.54668 0.5 6.08001C0.5 6.61334 0.686667 7.09334 1.06 7.52001L5.38 11.76L6.82 10.4L3.54 7.04001H13.54V5.04001Z" />
    </symbol>

    <symbol id="right-arrow-slide" viewBox="0 0 14 12"
        xmlns="http://www.w3.org/2000/svg">

        <path d="M12.4 4.64001L8.08 0.40001L6.64 1.76001L10 5.04001H0V7.04001H10L6.64 10.4L8.08 11.76L12.4 7.52001C12.7733 7.09334 12.96 6.61334 12.96 6.08001C12.96 5.54668 12.7733 5.06668 12.4 4.64001Z" />
    </symbol>


</svg>
    