<svg width="21" height="21" viewBox="0 0 21 21" fill="none" xmlns="http://www.w3.org/2000/svg">
<path d="M10.0328 0.927101C11.3972 0.927101 12.7015 1.18795 13.9456 1.70966C15.1361 2.21799 16.1963 2.937 17.126 3.86671C18.0557 4.79641 18.7747 5.85654 19.283 7.0471C19.8047 8.29117 20.0656 9.59543 20.0656 10.9599C20.0656 12.3243 19.8047 13.6286 19.283 14.8727C18.7747 16.0632 18.0557 17.1234 17.126 18.0531C16.1963 18.9828 15.1361 19.7018 13.9456 20.2101C12.7015 20.7318 11.3972 20.9927 10.0328 20.9927C8.66833 20.9927 7.36407 20.7318 6.12 20.2101C4.92944 19.7018 3.86931 18.9828 2.93961 18.0531C2.0099 17.1234 1.29089 16.0632 0.782557 14.8727C0.260852 13.6286 0 12.3243 0 10.9599C0 9.59543 0.260852 8.29117 0.782557 7.0471C1.29089 5.85654 2.0099 4.79641 2.93961 3.86671C3.86931 2.937 4.92944 2.21799 6.12 1.70966C7.36407 1.18795 8.66833 0.927101 10.0328 0.927101ZM10.0328 9.95661H6.01967V11.9632H10.0328V14.973L14.0459 10.9599L10.0328 6.94677V9.95661Z" fill="#F53E32"/>
</svg>
