<svg width="39" height="35" viewBox="0 0 39 35" fill="none" xmlns="http://www.w3.org/2000/svg">
<path d="M0.519531 11.6099C0.519531 9.51431 1.04342 7.57208 2.0912 5.7832C3.11342 4.07097 4.48064 2.70375 6.19286 1.68153C7.98175 0.633751 9.92398 0.109863 12.0195 0.109863H27.3529C29.4229 0.109863 31.3523 0.633751 33.1412 1.68153C34.879 2.70375 36.259 4.08375 37.2812 5.82153C38.329 7.61042 38.8529 9.53986 38.8529 11.6099V34.6099H12.0195C9.94953 34.6099 8.02009 34.086 6.2312 33.0382C4.49342 32.016 3.11342 30.636 2.0912 28.8982C1.04342 27.1093 0.519531 25.1799 0.519531 23.1099V11.6099ZM35.0195 30.7765V11.6099C35.0195 10.2299 34.6745 8.95209 33.9845 7.77653C33.2945 6.60097 32.3618 5.6682 31.1862 4.9782C30.0106 4.2882 28.7329 3.9432 27.3529 3.9432H12.0195C10.6395 3.9432 9.36175 4.2882 8.1862 4.9782C7.01064 5.6682 6.07786 6.59459 5.38786 7.75736C4.69786 8.92014 4.35286 10.2043 4.35286 11.6099V23.1099C4.35286 24.4899 4.69786 25.7676 5.38786 26.9432C6.07786 28.1188 7.01064 29.0515 8.1862 29.7415C9.36175 30.4315 10.6395 30.7765 12.0195 30.7765H35.0195ZM23.5195 15.4432H27.3529V19.2765H23.5195V15.4432ZM12.0195 15.4432H15.8529V19.2765H12.0195V15.4432Z" fill="#F53E32"/>
</svg>
